<?xml version="1.0" standalone="no"?>
<!DOCTYPE svg PUBLIC "-//W3C//DTD SVG 20010904//EN"
 "http://www.w3.org/TR/2001/REC-SVG-20010904/DTD/svg10.dtd">
<svg version="1.0" xmlns="http://www.w3.org/2000/svg"
 width="1275.000000pt" height="1651.000000pt" viewBox="0 0 1275.000000 1651.000000"
 preserveAspectRatio="xMidYMid meet">
<metadata>
Created by potrace 1.16, written by Peter Selinger 2001-2019
</metadata>
<g transform="translate(0.000000,1651.000000) scale(0.100000,-0.100000)"
fill="#000000" stroke="none">
<path d="M1212 15291 c-26 -16 -9 -53 28 -66 38 -13 45 -32 18 -48 -13 -9 -21
-7 -36 6 -21 19 -38 11 -21 -10 15 -18 74 -17 89 2 18 22 5 44 -35 61 -40 16
-47 44 -12 44 13 0 28 -5 35 -12 9 -9 12 -8 12 4 0 25 -50 37 -78 19z" fill="white"/>
<path d="M1320 15249 c0 -66 13 -89 50 -89 19 0 33 7 40 19 13 25 13 121 0
121 -5 0 -10 -24 -10 -54 0 -61 -19 -88 -45 -66 -10 8 -15 31 -15 66 0 30 -4
54 -10 54 -5 0 -10 -23 -10 -51z"/>
<path d="M1450 15230 c0 -40 4 -70 10 -70 6 0 10 14 10 30 0 17 4 30 9 30 5 0
19 -13 31 -30 27 -38 47 -39 24 -1 -16 27 -16 30 -1 46 10 9 17 20 17 25 0 20
-34 40 -66 40 l-34 0 0 -70z m75 40 c9 -15 -14 -40 -36 -40 -14 0 -19 7 -19
25 0 20 5 25 24 25 14 0 28 -5 31 -10z"/>
<path d="M1570 15294 c0 -5 9 -24 20 -42 11 -18 20 -46 20 -62 0 -17 5 -30 10
-30 6 0 10 13 10 29 0 17 10 46 21 66 12 20 19 39 16 42 -4 3 -14 -8 -24 -26
-21 -36 -29 -39 -38 -12 -6 21 -35 49 -35 35z"/>
<path d="M1708 15230 c-14 -38 -22 -70 -17 -70 4 0 13 9 19 20 6 12 21 20 35
20 14 0 29 -8 35 -20 6 -11 15 -20 19 -20 5 0 -3 32 -17 70 -15 39 -31 70 -37
70 -6 0 -22 -31 -37 -70z m52 -2 c0 -10 -7 -18 -15 -18 -16 0 -19 17 -9 45 5
13 8 14 15 3 5 -7 9 -21 9 -30z"/>
</g>
</svg>
